<svg xmlns="http://www.w3.org/2000/svg" xmlns:xlink="http://www.w3.org/1999/xlink" contentStyleType="text/css" data-diagram-type="STATE" height="1382px" preserveAspectRatio="none" style="width:1950px;height:1382px;background:#FFFFFF;" version="1.1" viewBox="0 0 1950 1382" width="1950px" zoomAndPan="magnify"><?plantuml 1.2026.6?><defs/><g><g class="title" data-source-line="1"><text fill="#000000" font-family="sans-serif" font-size="14" font-weight="700" lengthAdjust="spacing" textLength="249.5664" x="846.7168" y="23.5352">KnowledgeOS &#8212; Runtime Lifecycle</text></g><g class="start_entity" data-qualified-name=".start." data-source-line="6" id="ent0001"><ellipse cx="1552" cy="53.4883" fill="#222222" rx="10" ry="10" style="stroke:#222222;stroke-width:1;"/></g><g class="entity" data-qualified-name="Created" data-source-line="6" id="ent0002"><rect fill="#F1F1F1" height="50" rx="12.5" ry="12.5" style="stroke:#181818;stroke-width:0.5;" width="72.7939" x="1515.6" y="124.4883"/><line style="stroke:#181818;stroke-width:0.5;" x1="1515.6" x2="1588.3939" y1="150.9766" y2="150.9766"/><text fill="#000000" font-family="sans-serif" font-size="14" lengthAdjust="spacing" textLength="52.7939" x="1525.6" y="143.0234">Created</text></g><g class="entity" data-qualified-name="Initializing" data-source-line="8" id="ent0004"><rect fill="#F1F1F1" height="50" rx="12.5" ry="12.5" style="stroke:#181818;stroke-width:0.5;" width="91.3672" x="1506.32" y="235.4883"/><line style="stroke:#181818;stroke-width:0.5;" x1="1506.32" x2="1597.6872" y1="261.9766" y2="261.9766"/><text fill="#000000" font-family="sans-serif" font-size="14" lengthAdjust="spacing" textLength="71.3672" x="1516.32" y="254.0234">Initializing</text></g><g class="entity" data-qualified-name="Validating" data-source-line="9" id="ent0006"><rect fill="#F1F1F1" height="50" rx="12.5" ry="12.5" style="stroke:#181818;stroke-width:0.5;" width="88.2227" x="1507.89" y="346.4883"/><line style="stroke:#181818;stroke-width:0.5;" x1="1507.89" x2="1596.1127" y1="372.9766" y2="372.9766"/><text fill="#000000" font-family="sans-serif" font-size="14" lengthAdjust="spacing" textLength="68.2227" x="1517.89" y="365.0234">Validating</text></g><g class="entity" data-qualified-name="Recovering" data-source-line="10" id="ent0008"><rect fill="#F1F1F1" height="50" rx="12.5" ry="12.5" style="stroke:#181818;stroke-width:0.5;" width="94.6621" x="1162.67" y="981.4883"/><line style="stroke:#181818;stroke-width:0.5;" x1="1162.67" x2="1257.3321" y1="1007.9766" y2="1007.9766"/><text fill="#000000" font-family="sans-serif" font-size="14" lengthAdjust="spacing" textLength="74.6621" x="1172.67" y="1000.0234">Recovering</text></g><g class="entity" data-qualified-name="Ready" data-source-line="11" id="ent0010"><rect fill="#F1F1F1" height="50" rx="12.5" ry="12.5" style="stroke:#181818;stroke-width:0.5;" width="60.5098" x="1203.75" y="473.4883"/><line style="stroke:#181818;stroke-width:0.5;" x1="1203.75" x2="1264.2598" y1="499.9766" y2="499.9766"/><text fill="#000000" font-family="sans-serif" font-size="14" lengthAdjust="spacing" textLength="40.5098" x="1213.75" y="492.0234">Ready</text></g><g class="entity" data-qualified-name="Foreground" data-source-line="14" id="ent0013"><rect fill="#F1F1F1" height="50" rx="12.5" ry="12.5" style="stroke:#181818;stroke-width:0.5;" width="98.8799" x="734.56" y="600.4883"/><line style="stroke:#181818;stroke-width:0.5;" x1="734.56" x2="833.4399" y1="626.9766" y2="626.9766"/><text fill="#000000" font-family="sans-serif" font-size="14" lengthAdjust="spacing" textLength="78.8799" x="744.56" y="619.0234">Foreground</text></g><g class="entity" data-qualified-name="Background" data-source-line="15" id="ent0015"><rect fill="#F1F1F1" height="50" rx="12.5" ry="12.5" style="stroke:#181818;stroke-width:0.5;" width="100.3838" x="615.81" y="727.4883"/><line style="stroke:#181818;stroke-width:0.5;" x1="615.81" x2="716.1938" y1="753.9766" y2="753.9766"/><text fill="#000000" font-family="sans-serif" font-size="14" lengthAdjust="spacing" textLength="80.3838" x="625.81" y="746.0234">Background</text></g><g class="entity" data-qualified-name="Suspended" data-source-line="17" id="ent0018"><rect fill="#F1F1F1" height="50" rx="12.5" ry="12.5" style="stroke:#181818;stroke-width:0.5;" width="94.0879" x="943.96" y="854.4883"/><line style="stroke:#181818;stroke-width:0.5;" x1="943.96" x2="1038.0479" y1="880.9766" y2="880.9766"/><text fill="#000000" font-family="sans-serif" font-size="14" lengthAdjust="spacing" textLength="74.0879" x="953.96" y="873.0234">Suspended</text></g><g class="entity" data-qualified-name="Degraded" data-source-line="21" id="ent0022"><rect fill="#F1F1F1" height="50" rx="12.5" ry="12.5" style="stroke:#181818;stroke-width:0.5;" width="85.8984" x="556.05" y="854.4883"/><line style="stroke:#181818;stroke-width:0.5;" x1="556.05" x2="641.9484" y1="880.9766" y2="880.9766"/><text fill="#000000" font-family="sans-serif" font-size="14" lengthAdjust="spacing" textLength="65.8984" x="566.05" y="873.0234">Degraded</text></g><g class="entity" data-qualified-name="Crashed" data-source-line="28" id="ent0029"><rect fill="#F1F1F1" height="50" rx="12.5" ry="12.5" style="stroke:#181818;stroke-width:0.5;" width="75.583" x="1415.21" y="1092.4883"/><line style="stroke:#181818;stroke-width:0.5;" x1="1415.21" x2="1490.793" y1="1118.9766" y2="1118.9766"/><text fill="#000000" font-family="sans-serif" font-size="14" lengthAdjust="spacing" textLength="55.583" x="1425.21" y="1111.0234">Crashed</text></g><g class="entity" data-qualified-name="ShuttingDown" data-source-line="38" id="ent0039"><rect fill="#F1F1F1" height="50" rx="12.5" ry="12.5" style="stroke:#181818;stroke-width:0.5;" width="115.416" x="232.29" y="1092.4883"/><line style="stroke:#181818;stroke-width:0.5;" x1="232.29" x2="347.706" y1="1118.9766" y2="1118.9766"/><text fill="#000000" font-family="sans-serif" font-size="14" lengthAdjust="spacing" textLength="95.416" x="242.29" y="1111.0234">ShuttingDown</text></g><g class="entity" data-qualified-name="Terminated" data-source-line="47" id="ent0048"><rect fill="#F1F1F1" height="50" rx="12.5" ry="12.5" style="stroke:#181818;stroke-width:0.5;" width="97.7656" x="700.12" y="1203.4883"/><line style="stroke:#181818;stroke-width:0.5;" x1="700.12" x2="797.8856" y1="1229.9766" y2="1229.9766"/><text fill="#000000" font-family="sans-serif" font-size="14" lengthAdjust="spacing" textLength="77.7656" x="710.12" y="1222.0234">Terminated</text></g><g class="end_entity" data-qualified-name=".end." data-source-line="49" id="ent0051"><ellipse cx="749" cy="1325.4883" fill="none" rx="11" ry="11" style="stroke:#222222;stroke-width:1;"/><ellipse cx="749" cy="1325.4883" fill="#222222" rx="6" ry="6" style="stroke:#222222;stroke-width:1;"/></g><g class="entity" data-qualified-name="GMN53" data-source-line="52" id="ent0054"><path d="M1298.94,478.1783 L1298.94,494.4883 L1264.66,498.4883 L1298.94,502.4883 L1298.94,518.7994 A0,0 0 0 0 1298.94,518.7994 L1605.0513,518.7994 A0,0 0 0 0 1605.0513,518.7994 L1605.0513,488.1783 L1595.0513,478.1783 L1298.94,478.1783 A0,0 0 0 0 1298.94,478.1783" fill="#FEFFDD" style="stroke:#181818;stroke-width:0.5;"/><path d="M1595.0513,478.1783 L1595.0513,488.1783 L1605.0513,488.1783 L1595.0513,478.1783" fill="#FEFFDD" style="stroke:#181818;stroke-width:0.5;"/><text fill="#000000" font-family="sans-serif" font-size="13" lengthAdjust="spacing" textLength="254.3887" x="1304.94" y="495.7466">Foundational safe operation is available.</text><text fill="#000000" font-family="sans-serif" font-size="13" lengthAdjust="spacing" textLength="285.1113" x="1304.94" y="511.0572">Optional capabilities may still be unavailable.</text></g><g class="entity" data-qualified-name="GMN56" data-source-line="57" id="ent0057"><path d="M1195.33,866.8283 L1195.33,875.4883 L1038.2,879.4883 L1195.33,883.4883 L1195.33,892.1388 A0,0 0 0 0 1195.33,892.1388 L1502.6601,892.1388 A0,0 0 0 0 1502.6601,892.1388 L1502.6601,876.8283 L1492.6601,866.8283 L1195.33,866.8283 A0,0 0 0 0 1195.33,866.8283" fill="#FEFFDD" style="stroke:#181818;stroke-width:0.5;"/><path d="M1492.6601,866.8283 L1492.6601,876.8283 L1502.6601,876.8283 L1492.6601,866.8283" fill="#FEFFDD" style="stroke:#181818;stroke-width:0.5;"/><text fill="#000000" font-family="sans-serif" font-size="13" lengthAdjust="spacing" textLength="286.3301" x="1201.33" y="884.3966">In-memory progress is not assumed durable.</text></g><!--link *start* to Created--><g class="link" data-entity-1="ent0001" data-entity-2="ent0002" data-link-type="dependency" data-source-line="6" id="lnk3"><path d="M1552,63.8483 C1552,77.7783 1552,99.4383 1552,119.1383" fill="none" id="*start*-to-Created" style="stroke:#181818;stroke-width:1;"/><polygon fill="#181818" points="1552,124.1383,1556,115.1383,1552,119.1383,1548,115.1383,1552,124.1383" style="stroke:#181818;stroke-width:1;stroke-linejoin:miter;stroke-miterlimit:10;"/></g><!--link Created to Initializing--><g class="link" data-entity-1="ent0002" data-entity-2="ent0004" data-link-type="dependency" data-source-line="8" id="lnk5"><path d="M1552,174.9483 C1552,192.8983 1552,212.1783 1552,230.1083" fill="none" id="Created-to-Initializing" style="stroke:#181818;stroke-width:1;"/><polygon fill="#181818" points="1552,235.1083,1556,226.1083,1552,230.1083,1548,226.1083,1552,235.1083" style="stroke:#181818;stroke-width:1;stroke-linejoin:miter;stroke-miterlimit:10;"/></g><!--link Initializing to Validating--><g class="link" data-entity-1="ent0004" data-entity-2="ent0006" data-link-type="dependency" data-source-line="9" id="lnk7"><path d="M1552,285.9483 C1552,303.8983 1552,323.1783 1552,341.1083" fill="none" id="Initializing-to-Validating" style="stroke:#181818;stroke-width:1;"/><polygon fill="#181818" points="1552,346.1083,1556,337.1083,1552,341.1083,1548,337.1083,1552,346.1083" style="stroke:#181818;stroke-width:1;stroke-linejoin:miter;stroke-miterlimit:10;"/></g><!--link Validating to Recovering--><g class="link" data-entity-1="ent0006" data-entity-2="ent0008" data-link-type="dependency" data-source-line="10" id="lnk9"><path d="M1591.17,396.8583 C1621.36,418.9883 1658,454.6683 1658,497.4883 C1658,497.4883 1658,497.4883 1655,689.9883 C1655,802.6283 1608.85,835.2483 1520,904.4883 C1440.98,966.0783 1327.979,990.0662 1262.719,999.4562" fill="none" id="Validating-to-Recovering" style="stroke:#181818;stroke-width:1;"/><polygon fill="#181818" points="1257.77,1000.1683,1267.2479,1002.8457,1262.719,999.4562,1266.1086,994.9273,1257.77,1000.1683" style="stroke:#181818;stroke-width:1;stroke-linejoin:miter;stroke-miterlimit:10;"/><text fill="#000000" font-family="sans-serif" font-size="13" lengthAdjust="spacing" textLength="110.7158" x="1659" y="694.0566">recovery required</text></g><!--link Validating to Ready--><g class="link" data-entity-1="ent0006" data-entity-2="ent0010" data-link-type="dependency" data-source-line="11" id="lnk11"><path d="M1507.73,387.2283 C1453.55,405.6583 1359.36,439.0183 1281,473.4883 C1275.63,475.8483 1274.4871,476.3021 1269.0771,478.9921" fill="none" id="Validating-to-Ready" style="stroke:#181818;stroke-width:1;"/><polygon fill="#181818" points="1264.6,481.2183,1274.4397,480.7929,1269.0771,478.9921,1270.8779,473.6296,1264.6,481.2183" style="stroke:#181818;stroke-width:1;stroke-linejoin:miter;stroke-miterlimit:10;"/><text fill="#000000" font-family="sans-serif" font-size="13" lengthAdjust="spacing" textLength="123.6396" x="1392.42" y="440.0566">validation complete</text></g><!--link Recovering to Ready--><g class="link" data-entity-1="ent0008" data-entity-2="ent0010" data-link-type="dependency" data-source-line="12" id="lnk12"><path d="M1202.59,981.1283 C1198.38,967.4083 1192.98,949.9683 1188,934.4883 C1183.7,921.1083 1180.25,918.3583 1178,904.4883 C1174.44,882.5483 1166.86,873.7183 1178,854.4883 C1248.38,733.0583 1381.62,818.9183 1452,697.4883 C1477.64,653.2483 1334.4354,559.8808 1268.6854,520.0108" fill="none" id="Recovering-to-Ready" style="stroke:#181818;stroke-width:1;"/><polygon fill="#181818" points="1264.41,517.4183,1270.0316,525.5051,1268.6854,520.0108,1274.1797,518.6645,1264.41,517.4183" style="stroke:#181818;stroke-width:1;stroke-linejoin:miter;stroke-miterlimit:10;"/><text fill="#000000" font-family="sans-serif" font-size="13" lengthAdjust="spacing" textLength="115.4702" x="1430.13" y="757.5566">recovery complete</text></g><!--link Ready to Foreground--><g class="link" data-entity-1="ent0010" data-entity-2="ent0013" data-link-type="dependency" data-source-line="14" id="lnk14"><path d="M1203.42,507.9783 C1127.07,529.1883 932.2675,583.2998 838.6475,609.3098" fill="none" id="Ready-to-Foreground" style="stroke:#181818;stroke-width:1;"/><polygon fill="#181818" points="833.83,610.6483,843.5723,612.0931,838.6475,609.3098,841.4308,604.3851,833.83,610.6483" style="stroke:#181818;stroke-width:1;stroke-linejoin:miter;stroke-miterlimit:10;"/><text fill="#000000" font-family="sans-serif" font-size="13" lengthAdjust="spacing" textLength="139.9849" x="1036.94" y="567.0566">user-visible activation</text></g><!--link Foreground to Background--><g class="link" data-entity-1="ent0013" data-entity-2="ent0015" data-link-type="dependency" data-source-line="15" id="lnk16"><path d="M734.27,644.9383 C717.18,653.4483 699.29,665.1383 687,680.4883 C676.31,693.8383 671.917,707.5523 669.337,722.3823" fill="none" id="Foreground-to-Background" style="stroke:#181818;stroke-width:1;"/><polygon fill="#181818" points="668.48,727.3083,673.9634,719.1271,669.337,722.3823,666.0818,717.7559,668.48,727.3083" style="stroke:#181818;stroke-width:1;stroke-linejoin:miter;stroke-miterlimit:10;"/><text fill="#000000" font-family="sans-serif" font-size="13" lengthAdjust="spacing" textLength="164.4551" x="688" y="694.0566">application backgrounded</text></g><!--link Background to Foreground--><g class="link" data-entity-1="ent0015" data-entity-2="ent0013" data-link-type="dependency" data-source-line="16" id="lnk17"><path d="M615.35,736.4883 C583.68,725.9683 547.2,711.3583 538,697.4883 C533.82,691.1883 533.26,686.3783 538,680.4883 C562.15,650.4583 664.6713,636.6497 729.3013,630.6597" fill="none" id="Background-to-Foreground" style="stroke:#181818;stroke-width:1;"/><polygon fill="#181818" points="734.28,630.1983,724.9493,627.0459,729.3013,630.6597,725.6876,635.0118,734.28,630.1983" style="stroke:#181818;stroke-width:1;stroke-linejoin:miter;stroke-miterlimit:10;"/><text fill="#000000" font-family="sans-serif" font-size="13" lengthAdjust="spacing" textLength="130.3364" x="539" y="694.0566">application activated</text></g><!--link Background to Suspended--><g class="link" data-entity-1="ent0015" data-entity-2="ent0018" data-link-type="dependency" data-source-line="17" id="lnk19"><path d="M716.66,764.2083 C770.49,775.9483 851.79,794.8083 881,807.4883 C909.15,819.7083 934.1476,835.8595 955.3176,851.1595" fill="none" id="Background-to-Suspended" style="stroke:#181818;stroke-width:1;"/><polygon fill="#181818" points="959.37,854.0883,954.4186,845.5745,955.3176,851.1595,949.7326,852.0584,959.37,854.0883" style="stroke:#181818;stroke-width:1;stroke-linejoin:miter;stroke-miterlimit:10;"/><text fill="#000000" font-family="sans-serif" font-size="13" lengthAdjust="spacing" textLength="129.5684" x="913.94" y="821.0566">platform suspension</text></g><!--link Suspended to Recovering--><g class="link" data-entity-1="ent0018" data-entity-2="ent0008" data-link-type="dependency" data-source-line="18" id="lnk20"><path d="M982.57,904.9783 C979.07,919.9283 977.86,938.5883 988,951.4883 C1009.26,978.5383 1098.705,993.1374 1157.355,1000.1174" fill="none" id="Suspended-to-Recovering" style="stroke:#181818;stroke-width:1;"/><polygon fill="#181818" points="1162.32,1000.7083,1153.8558,995.6727,1157.355,1000.1174,1152.9104,1003.6167,1162.32,1000.7083" style="stroke:#181818;stroke-width:1;stroke-linejoin:miter;stroke-miterlimit:10;"/><text fill="#000000" font-family="sans-serif" font-size="13" lengthAdjust="spacing" textLength="194.2383" x="989" y="948.0566">process resumes with recovery</text></g><!--link Suspended to Foreground--><g class="link" data-entity-1="ent0018" data-entity-2="ent0013" data-link-type="dependency" data-source-line="19" id="lnk21"><path d="M1038.41,863.5383 C1066.09,851.8383 1093.65,833.2083 1083,807.4883 C1040.74,705.4583 912.2733,658.2987 838.7433,638.8187" fill="none" id="Suspended-to-Foreground" style="stroke:#181818;stroke-width:1;"/><polygon fill="#181818" points="833.91,637.5383,841.5855,643.7097,838.7433,638.8187,843.6342,635.9765,833.91,637.5383" style="stroke:#181818;stroke-width:1;stroke-linejoin:miter;stroke-miterlimit:10;"/><text fill="#000000" font-family="sans-serif" font-size="13" lengthAdjust="spacing" textLength="161.2368" x="1067.06" y="757.5566">resumable state still valid</text></g><!--link Ready to Degraded--><g class="link" data-entity-1="ent0010" data-entity-2="ent0022" data-link-type="dependency" data-source-line="21" id="lnk23"><path d="M1237.77,523.8983 C1246.52,584.1183 1265.33,737.7983 1236,777.4883 C1193.72,834.6983 1152.65,810.0383 1083,824.4883 C922.4,857.8083 732.2522,871.3596 647.1522,876.1096" fill="none" id="Ready-to-Degraded" style="stroke:#181818;stroke-width:1;"/><polygon fill="#181818" points="642.16,876.3883,651.3689,879.8805,647.1522,876.1096,650.9231,871.8929,642.16,876.3883" style="stroke:#181818;stroke-width:1;stroke-linejoin:miter;stroke-miterlimit:10;"/><text fill="#000000" font-family="sans-serif" font-size="13" lengthAdjust="spacing" textLength="191.4136" x="1252.81" y="694.0566">optional capability unavailable</text></g><!--link Degraded to Ready--><g class="link" data-entity-1="ent0022" data-entity-2="ent0010" data-link-type="dependency" data-source-line="24" id="lnk26"><path d="M555.59,872.8383 C520.33,866.3283 471.03,852.6583 437,824.4883 C221.63,646.2283 329.34,726.4383 366,680.4883 C474,545.1083 1057.6662,508.1273 1198.6562,501.0973" fill="none" id="Degraded-to-Ready" style="stroke:#181818;stroke-width:1;"/><polygon fill="#181818" points="1203.65,500.8483,1194.462,497.3014,1198.6562,501.0973,1194.8604,505.2915,1203.65,500.8483" style="stroke:#181818;stroke-width:1;stroke-linejoin:miter;stroke-miterlimit:10;"/><text fill="#000000" font-family="sans-serif" font-size="13" lengthAdjust="spacing" textLength="117.2031" x="367" y="694.0566">capability restored</text></g><!--link Foreground to Degraded--><g class="link" data-entity-1="ent0013" data-entity-2="ent0022" data-link-type="dependency" data-source-line="22" id="lnk24"><path d="M830.51,650.8483 C841.13,658.7883 851.04,668.6683 857,680.4883 C876.41,718.9883 828.93,744.7683 857,777.4883 C915.05,845.1483 1111.19,757.8283 1052,824.4883 C1038.44,839.7583 757.672,865.0542 647.122,874.4642" fill="none" id="Foreground-to-Degraded" style="stroke:#181818;stroke-width:1;"/><polygon fill="#181818" points="642.14,874.8883,651.4468,878.1106,647.122,874.4642,650.7683,870.1394,642.14,874.8883" style="stroke:#181818;stroke-width:1;stroke-linejoin:miter;stroke-miterlimit:10;"/><text fill="#000000" font-family="sans-serif" font-size="13" lengthAdjust="spacing" textLength="140.4863" x="858" y="757.5566">capability degradation</text></g><!--link Degraded to Foreground--><g class="link" data-entity-1="ent0022" data-entity-2="ent0013" data-link-type="dependency" data-source-line="25" id="lnk27"><path d="M555.81,875.2483 C521.91,870.1783 476.76,857.2483 454,824.4883 C429.22,788.8083 443.98,764.9383 466,727.4883 C483.35,697.9883 495.92,694.8083 527,680.4883 C594.7,649.2883 675.7872,636.4394 729.1272,630.8494" fill="none" id="Degraded-to-Foreground" style="stroke:#181818;stroke-width:1;"/><polygon fill="#181818" points="734.1,630.3283,724.7321,627.2881,729.1272,630.8494,725.5659,635.2446,734.1,630.3283" style="stroke:#181818;stroke-width:1;stroke-linejoin:miter;stroke-miterlimit:10;"/><text fill="#000000" font-family="sans-serif" font-size="13" lengthAdjust="spacing" textLength="130.2793" x="467" y="757.5566">restored while active</text></g><!--link Background to Degraded--><g class="link" data-entity-1="ent0015" data-entity-2="ent0022" data-link-type="dependency" data-source-line="23" id="lnk25"><path d="M615.6,769.6683 C606.76,772.3683 597.63,775.0783 589,777.4883 C535.64,792.4083 502.14,763.8483 468,807.4883 C440.82,842.2283 503.0549,861.2189 550.9249,870.6789" fill="none" id="Background-to-Degraded" style="stroke:#181818;stroke-width:1;"/><polygon fill="#181818" points="555.83,871.6483,547.7762,865.9793,550.9249,870.6789,546.2253,873.8276,555.83,871.6483" style="stroke:#181818;stroke-width:1;stroke-linejoin:miter;stroke-miterlimit:10;"/><text fill="#000000" font-family="sans-serif" font-size="13" lengthAdjust="spacing" textLength="140.4863" x="469" y="821.0566">capability degradation</text></g><!--link Degraded to Background--><g class="link" data-entity-1="ent0022" data-entity-2="ent0015" data-link-type="dependency" data-source-line="26" id="lnk28"><path d="M612.04,854.1483 C623.84,832.1483 638.7583,804.3154 650.5583,782.2954" fill="none" id="Degraded-to-Background" style="stroke:#181818;stroke-width:1;"/><polygon fill="#181818" points="652.92,777.8883,645.1433,783.9317,650.5583,782.2954,652.1947,787.7104,652.92,777.8883" style="stroke:#181818;stroke-width:1;stroke-linejoin:miter;stroke-miterlimit:10;"/><text fill="#000000" font-family="sans-serif" font-size="13" lengthAdjust="spacing" textLength="184.6216" x="637.51" y="821.0566">restored while backgrounded</text></g><!--link Created to Crashed--><g class="link" data-entity-1="ent0002" data-entity-2="ent0029" data-link-type="dependency" data-source-line="28" id="lnk30"><path d="M1588.72,153.0783 C1684.59,160.8283 1935,187.9383 1935,259.4883 C1935,259.4883 1935,259.4883 1935,1007.4883 C1935,1098.3183 1610.2288,1113.3578 1496.2188,1115.8778" fill="none" id="Created-to-Crashed" style="stroke:#181818;stroke-width:1;"/><polygon fill="#181818" points="1491.22,1115.9883,1500.3062,1119.7884,1496.2188,1115.8778,1500.1294,1111.7904,1491.22,1115.9883" style="stroke:#181818;stroke-width:1;stroke-linejoin:miter;stroke-miterlimit:10;"/></g><!--link Initializing to Crashed--><g class="link" data-entity-1="ent0004" data-entity-2="ent0029" data-link-type="dependency" data-source-line="29" id="lnk31"><path d="M1598.04,267.7783 C1684.82,280.9383 1864,314.8283 1864,370.4883 C1864,370.4883 1864,370.4883 1864,1007.4883 C1864,1084.2583 1597.6705,1107.9298 1495.9205,1114.2198" fill="none" id="Initializing-to-Crashed" style="stroke:#181818;stroke-width:1;"/><polygon fill="#181818" points="1490.93,1114.5283,1500.1597,1117.9654,1495.9205,1114.2198,1499.6661,1109.9806,1490.93,1114.5283" style="stroke:#181818;stroke-width:1;stroke-linejoin:miter;stroke-miterlimit:10;"/></g><!--link Validating to Crashed--><g class="link" data-entity-1="ent0006" data-entity-2="ent0029" data-link-type="dependency" data-source-line="30" id="lnk32"><path d="M1596.48,375.7783 C1666.12,383.6283 1793,409.9383 1793,497.4883 C1793,497.4883 1793,497.4883 1793,1007.4883 C1793,1070.3283 1584.6956,1101.4128 1495.9756,1111.8728" fill="none" id="Validating-to-Crashed" style="stroke:#181818;stroke-width:1;"/><polygon fill="#181818" points="1491.01,1112.4583,1500.4164,1115.377,1495.9756,1111.8728,1499.4797,1107.432,1491.01,1112.4583" style="stroke:#181818;stroke-width:1;stroke-linejoin:miter;stroke-miterlimit:10;"/></g><!--link Recovering to Crashed--><g class="link" data-entity-1="ent0008" data-entity-2="ent0029" data-link-type="dependency" data-source-line="31" id="lnk33"><path d="M1257.72,1028.8883 C1303.75,1049.5383 1367.9483,1078.3312 1410.3983,1097.3812" fill="none" id="Recovering-to-Crashed" style="stroke:#181818;stroke-width:1;"/><polygon fill="#181818" points="1414.96,1099.4283,1408.3866,1092.0941,1410.3983,1097.3812,1405.1112,1099.3928,1414.96,1099.4283" style="stroke:#181818;stroke-width:1;stroke-linejoin:miter;stroke-miterlimit:10;"/></g><!--link Ready to Crashed--><g class="link" data-entity-1="ent0010" data-entity-2="ent0029" data-link-type="dependency" data-source-line="32" id="lnk34"><path d="M1264.61,515.7283 C1270.02,518.4183 1275.64,521.1083 1281,523.4883 C1315.33,538.7183 1326.22,537.0683 1360,553.4883 C1459.2,601.7283 1484.17,630.6483 1537,727.4883 C1601.71,846.1183 1592.42,910.6183 1532,1031.4883 C1520.29,1054.9183 1503.7944,1073.0991 1486.7544,1088.6391" fill="none" id="Ready-to-Crashed" style="stroke:#181818;stroke-width:1;"/><polygon fill="#181818" points="1483.06,1092.0083,1492.4053,1088.8993,1486.7544,1088.6391,1487.0146,1082.9882,1483.06,1092.0083" style="stroke:#181818;stroke-width:1;stroke-linejoin:miter;stroke-miterlimit:10;"/></g><!--link Foreground to Crashed--><g class="link" data-entity-1="ent0013" data-entity-2="ent0029" data-link-type="dependency" data-source-line="33" id="lnk35"><path d="M833.61,634.7083 C917.85,648.5383 1094.29,676.9583 1244,697.4883 C1299.44,705.0883 1452.84,689.5883 1494,727.4883 C1598.66,823.8583 1506.9494,1018.6262 1469.3194,1087.7962" fill="none" id="Foreground-to-Crashed" style="stroke:#181818;stroke-width:1;"/><polygon fill="#181818" points="1466.93,1092.1883,1474.7446,1086.194,1469.3194,1087.7962,1467.7172,1082.3709,1466.93,1092.1883" style="stroke:#181818;stroke-width:1;stroke-linejoin:miter;stroke-miterlimit:10;"/></g><!--link Background to Crashed--><g class="link" data-entity-1="ent0015" data-entity-2="ent0029" data-link-type="dependency" data-source-line="34" id="lnk36"><path d="M716.6,761.6583 C751.29,769.1683 797.02,782.9883 831,807.4883 C931.51,879.9583 891.93,965.8083 997,1031.4883 C1067.16,1075.3483 1313.5437,1103.0822 1409.9837,1112.5022" fill="none" id="Background-to-Crashed" style="stroke:#181818;stroke-width:1;"/><polygon fill="#181818" points="1414.96,1112.9883,1406.3915,1108.1323,1409.9837,1112.5022,1405.6138,1116.0944,1414.96,1112.9883" style="stroke:#181818;stroke-width:1;stroke-linejoin:miter;stroke-miterlimit:10;"/></g><!--link Suspended to Crashed--><g class="link" data-entity-1="ent0018" data-entity-2="ent0029" data-link-type="dependency" data-source-line="35" id="lnk37"><path d="M975.91,904.6983 C968.97,919.1783 964.04,937.4383 973,951.4883 C1022.46,1029.0383 1305.5072,1088.8985 1410.1272,1108.6985" fill="none" id="Suspended-to-Crashed" style="stroke:#181818;stroke-width:1;"/><polygon fill="#181818" points="1415.04,1109.6283,1406.9408,1104.0245,1410.1272,1108.6985,1405.4532,1111.8849,1415.04,1109.6283" style="stroke:#181818;stroke-width:1;stroke-linejoin:miter;stroke-miterlimit:10;"/></g><!--link Degraded to Crashed--><g class="link" data-entity-1="ent0022" data-entity-2="ent0029" data-link-type="dependency" data-source-line="36" id="lnk38"><path d="M621.04,904.7083 C659.9,945.5483 745.11,1027.1183 836,1062.4883 C942.47,1103.9183 1292.3108,1113.6868 1409.8308,1115.8368" fill="none" id="Degraded-to-Crashed" style="stroke:#181818;stroke-width:1;"/><polygon fill="#181818" points="1414.83,1115.9283,1405.9047,1111.7643,1409.8308,1115.8368,1405.7583,1119.763,1414.83,1115.9283" style="stroke:#181818;stroke-width:1;stroke-linejoin:miter;stroke-miterlimit:10;"/></g><!--link Created to ShuttingDown--><g class="link" data-entity-1="ent0002" data-entity-2="ent0039" data-link-type="dependency" data-source-line="38" id="lnk40"><path d="M1515.31,151.0983 C1281.19,155.2283 6,181.2883 6,259.4883 C6,259.4883 6,259.4883 6,1007.4883 C6,1055.4183 143.8522,1089.2125 226.9322,1105.3925" fill="none" id="Created-to-ShuttingDown" style="stroke:#181818;stroke-width:1;"/><polygon fill="#181818" points="231.84,1106.3483,223.7706,1100.7016,226.9322,1105.3925,222.2413,1108.5541,231.84,1106.3483" style="stroke:#181818;stroke-width:1;stroke-linejoin:miter;stroke-miterlimit:10;"/></g><!--link Initializing to ShuttingDown--><g class="link" data-entity-1="ent0004" data-entity-2="ent0039" data-link-type="dependency" data-source-line="39" id="lnk41"><path d="M1505.83,262.4283 C1255.99,267.7983 77,297.0283 77,370.4883 C77,370.4883 77,370.4883 77,1007.4883 C77,1077.2783 163.7805,1101.6996 226.8505,1110.7296" fill="none" id="Initializing-to-ShuttingDown" style="stroke:#181818;stroke-width:1;"/><polygon fill="#181818" points="231.8,1111.4383,223.4578,1106.2031,226.8505,1110.7296,222.3239,1114.1223,231.8,1111.4383" style="stroke:#181818;stroke-width:1;stroke-linejoin:miter;stroke-miterlimit:10;"/></g><!--link Validating to ShuttingDown--><g class="link" data-entity-1="ent0006" data-entity-2="ent0039" data-link-type="dependency" data-source-line="40" id="lnk42"><path d="M1507.66,374.0583 C1269.01,382.7883 148,427.5183 148,497.4883 C148,497.4883 148,497.4883 148,1007.4883 C148,1052.0883 188.0215,1078.9751 227.2315,1095.7151" fill="none" id="Validating-to-ShuttingDown" style="stroke:#181818;stroke-width:1;"/><polygon fill="#181818" points="231.83,1097.6783,225.1234,1090.4657,227.2315,1095.7151,221.9822,1097.8232,231.83,1097.6783" style="stroke:#181818;stroke-width:1;stroke-linejoin:miter;stroke-miterlimit:10;"/></g><!--link Recovering to ShuttingDown--><g class="link" data-entity-1="ent0008" data-entity-2="ent0039" data-link-type="dependency" data-source-line="41" id="lnk43"><path d="M1162.47,1013.1183 C1007.57,1031.4683 522.4753,1088.94 353.1753,1109" fill="none" id="Recovering-to-ShuttingDown" style="stroke:#181818;stroke-width:1;"/><polygon fill="#181818" points="348.21,1109.5883,357.6181,1112.5015,353.1753,1109,356.6768,1104.5571,348.21,1109.5883" style="stroke:#181818;stroke-width:1;stroke-linejoin:miter;stroke-miterlimit:10;"/></g><!--link Ready to ShuttingDown--><g class="link" data-entity-1="ent0010" data-entity-2="ent0039" data-link-type="dependency" data-source-line="42" id="lnk44"><path d="M1203.35,499.9583 C1033.85,502.9583 219,522.6783 219,624.4883 C219,624.4883 219,624.4883 219,1007.4883 C219,1040.6883 238.9141,1068.1235 258.8541,1088.5135" fill="none" id="Ready-to-ShuttingDown" style="stroke:#181818;stroke-width:1;"/><polygon fill="#181818" points="262.35,1092.0883,258.9172,1082.857,258.8541,1088.5135,253.1976,1088.4504,262.35,1092.0883" style="stroke:#181818;stroke-width:1;stroke-linejoin:miter;stroke-miterlimit:10;"/></g><!--link Foreground to ShuttingDown--><g class="link" data-entity-1="ent0013" data-entity-2="ent0039" data-link-type="dependency" data-source-line="43" id="lnk45"><path d="M734.25,627.0883 C672.66,629.6483 566,640.1983 485,680.4883 C457.4,694.2183 451.8,702.3283 434,727.4883 C348.11,848.8783 308.0516,1022.6416 295.4016,1087.1916" fill="none" id="Foreground-to-ShuttingDown" style="stroke:#181818;stroke-width:1;"/><polygon fill="#181818" points="294.44,1092.0983,300.0962,1084.0355,295.4016,1087.1916,292.2455,1082.497,294.44,1092.0983" style="stroke:#181818;stroke-width:1;stroke-linejoin:miter;stroke-miterlimit:10;"/></g><!--link Background to ShuttingDown--><g class="link" data-entity-1="ent0015" data-entity-2="ent0039" data-link-type="dependency" data-source-line="44" id="lnk46"><path d="M615.49,774.4583 C612.3,775.5383 609.12,776.5683 606,777.4883 C539.97,797.0283 509.28,766.4283 454,807.4883 C441.14,817.0383 340.3148,1016.2905 304.4748,1087.6205" fill="none" id="Background-to-ShuttingDown" style="stroke:#181818;stroke-width:1;"/><polygon fill="#181818" points="302.23,1092.0883,309.8449,1085.8422,304.4748,1087.6205,302.6965,1082.2505,302.23,1092.0883" style="stroke:#181818;stroke-width:1;stroke-linejoin:miter;stroke-miterlimit:10;"/></g><!--link Degraded to ShuttingDown--><g class="link" data-entity-1="ent0022" data-entity-2="ent0039" data-link-type="dependency" data-source-line="45" id="lnk47"><path d="M583.53,904.9083 C557.92,943.5183 503.12,1018.7483 439,1062.4883 C411.61,1081.1683 381.7837,1092.8069 352.8137,1101.3969" fill="none" id="Degraded-to-ShuttingDown" style="stroke:#181818;stroke-width:1;"/><polygon fill="#181818" points="348.02,1102.8183,357.7858,1104.0947,352.8137,1101.3969,355.5116,1096.4248,348.02,1102.8183" style="stroke:#181818;stroke-width:1;stroke-linejoin:miter;stroke-miterlimit:10;"/></g><!--link ShuttingDown to Terminated--><g class="link" data-entity-1="ent0039" data-entity-2="ent0048" data-link-type="dependency" data-source-line="47" id="lnk49"><path d="M348.13,1132.2883 C439.32,1153.9483 609.4952,1194.3633 694.8752,1214.6333" fill="none" id="ShuttingDown-to-Terminated" style="stroke:#181818;stroke-width:1;"/><polygon fill="#181818" points="699.74,1215.7883,691.9073,1209.8176,694.8752,1214.6333,690.0594,1217.6012,699.74,1215.7883" style="stroke:#181818;stroke-width:1;stroke-linejoin:miter;stroke-miterlimit:10;"/></g><!--link Crashed to Terminated--><g class="link" data-entity-1="ent0029" data-entity-2="ent0048" data-link-type="dependency" data-source-line="48" id="lnk50"><path d="M1414.9,1124.3883 C1295.96,1142.8083 936.4611,1198.4631 803.3111,1219.0831" fill="none" id="Crashed-to-Terminated" style="stroke:#181818;stroke-width:1;"/><polygon fill="#181818" points="798.37,1219.8483,807.8761,1222.4238,803.3111,1219.0831,806.6518,1214.5181,798.37,1219.8483" style="stroke:#181818;stroke-width:1;stroke-linejoin:miter;stroke-miterlimit:10;"/></g><!--link Terminated to *end*--><g class="link" data-entity-1="ent0048" data-entity-2="ent0051" data-link-type="dependency" data-source-line="49" id="lnk52"><path d="M749,1253.9483 C749,1273.5283 749,1294.9783 749,1309.2883" fill="none" id="Terminated-to-*end*" style="stroke:#181818;stroke-width:1;"/><polygon fill="#181818" points="749,1314.2883,753,1305.2883,749,1309.2883,745,1305.2883,749,1314.2883" style="stroke:#181818;stroke-width:1;stroke-linejoin:miter;stroke-miterlimit:10;"/></g><g class="caption" data-source-line="2"><text fill="#000000" font-family="sans-serif" font-size="14" lengthAdjust="spacing" textLength="118.6719" x="912.1641" y="1359.0234">Architecture V3.0</text></g><g class="footer" data-source-line="60"><text fill="#888888" font-family="sans-serif" font-size="10" lengthAdjust="spacing" textLength="225.2295" x="858.8853" y="1373.6445">KnowledgeOS Architecture | UML | Version 3.0</text></g><?plantuml-src XLNDZjCm4BxxANn6QeN4ZGCIx0ffnQALjj0BuZ1D9ibe7JlOJgiY3Zm4JyYJC7P-QZi7BgtzVTzu_ZoE9wzGVjBceh1kyUaW__x-8vz7xQb7-KWDLjTAeQXWy6IqV6-hZZnMVhGeZs_shuLmBwG7iD1Brq5jBgHRsO1oACItLz_bRlTEtba4ZxKGyoA23veyWQAVR23IJMIFlAd11-wsZCmpLkQCDcpVIZjjhhpuCP9b7nirr5SMdcUOSwXCFoZqA9AJKkbwvYeK4nL47ut5rffHrwmS7ThTcHoTk8XGUJf73o8H1PiFKBsiDZ0CYgefajDASE29QkCeDPhzR2qEenim7CK6WmBV6CizYQ0BKTtuJHa7QofqZbDtOuzENiXtQnqAmoomQ00XVUSv9lubfQPYfrMxPmkO8ZFn8e6IVANWH8hyLOuQpa0gd5FMBh5C3Eg8JiKkgl1_WrMHDZtHSaxUXAkK2SkqeqHUEbfQZxa-QtgXp_gU3SMT1TSnk9c7XIYkzm8NL_a6BnrOaAAy2rmKSO7ppYzebkS2PcaSkj676E_DHMzpoTWYeOmhiYgu9RKCBlBBk79UKYxBAMD4kelq5xGzwJY2S_ObV5j6Xjz18RJX-R3KTbwQPhftGlArud1W7Wa73VA0e9qcdPnSvsBFsgVDw13FQW_NUUnEc4xINd3dPF1Q-bwxocS-w5sFlU7NZj-0reP7WDsoNe8BRq4jwz6MnpM6_spssSW-3B_ary-F_7j46ruUoT-9Vm00?></g></svg>