<svg xmlns="http://www.w3.org/2000/svg" xmlns:xlink="http://www.w3.org/1999/xlink" contentStyleType="text/css" data-diagram-type="DESCRIPTION" height="585px" preserveAspectRatio="none" style="width:1285px;height:585px;background:#FFFFFF;" version="1.1" viewBox="0 0 1285 585" width="1285px" zoomAndPan="magnify"><?plantuml 1.2026.6?><defs/><g><g class="title" data-source-line="1"><text fill="#000000" font-family="sans-serif" font-size="14" font-weight="700" lengthAdjust="spacing" textLength="332.7598" x="472.9997" y="23.5352">KnowledgeOS &#8212; C4 Level 1 &#8212; System Context</text></g><!--entity user--><g class="entity" data-qualified-name="user" data-source-line="8" id="ent0001"><ellipse cx="661.8826" cy="51.4883" fill="#F1F1F1" rx="8" ry="8" style="stroke:#181818;stroke-width:0.5;"/><path d="M661.8826,59.4883 L661.8826,86.4883 M648.8826,67.4883 L674.8826,67.4883 M661.8826,86.4883 L648.8826,101.4883 M661.8826,86.4883 L674.8826,101.4883" fill="none" style="stroke:#181818;stroke-width:0.5;"/><text fill="#000000" font-family="sans-serif" font-size="14" lengthAdjust="spacing" textLength="30.3652" x="646.7" y="116.5234">User</text></g><!--entity clients--><g class="entity" data-qualified-name="clients" data-source-line="9" id="ent0002"><rect fill="#F1F1F1" height="52.9766" rx="2.5" ry="2.5" style="stroke:#181818;stroke-width:0.5;" width="172.6807" x="575.54" y="196.4783"/><text fill="#000000" font-family="sans-serif" font-size="14" lengthAdjust="spacing" textLength="143.8896" x="589.9355" y="220.0134">KnowledgeOS Clients</text><text fill="#000000" font-family="sans-serif" font-size="14" lengthAdjust="spacing" textLength="152.6807" x="585.54" y="236.5017">macOS / iPhone / iPad</text></g><!--entity server--><g class="entity" data-qualified-name="server" data-source-line="10" id="ent0003"><polygon fill="#F1F1F1" points="53.34,336.4583,63.34,326.4583,232.4308,326.4583,232.4308,379.4348,222.4308,389.4348,53.34,389.4348,53.34,336.4583" style="stroke:#181818;stroke-width:0.5;stroke-linejoin:miter;stroke-miterlimit:10;"/><line style="stroke:#181818;stroke-width:0.5;" x1="222.4308" x2="232.4308" y1="336.4583" y2="326.4583"/><line style="stroke:#181818;stroke-width:0.5;" x1="53.34" x2="222.4308" y1="336.4583" y2="336.4583"/><line style="stroke:#181818;stroke-width:0.5;" x1="222.4308" x2="222.4308" y1="336.4583" y2="389.4348"/><text fill="#000000" font-family="sans-serif" font-size="14" lengthAdjust="spacing" textLength="139.0908" x="68.34" y="359.9934">KnowledgeOS Server</text><text fill="#000000" font-family="sans-serif" font-size="14" lengthAdjust="spacing" textLength="49.2598" x="113.2555" y="376.4817">on NAS</text></g><!--entity master--><g class="entity" data-qualified-name="master" data-source-line="11" id="ent0004"><path d="M6,476.4283 C6,466.4283 142.8853,466.4283 142.8853,466.4283 C142.8853,466.4283 279.7705,466.4283 279.7705,476.4283 L279.7705,518.4048 C279.7705,528.4048 142.8853,528.4048 142.8853,528.4048 C142.8853,528.4048 6,528.4048 6,518.4048 L6,476.4283" fill="#F1F1F1" style="stroke:#181818;stroke-width:0.5;"/><path d="M6,476.4283 C6,486.4283 142.8853,486.4283 142.8853,486.4283 C142.8853,486.4283 279.7705,486.4283 279.7705,476.4283" fill="none" style="stroke:#181818;stroke-width:0.5;"/><text fill="#000000" font-family="sans-serif" font-size="14" lengthAdjust="spacing" textLength="128.9189" x="78.4258" y="503.9634">NAS Master Library</text><text fill="#000000" font-family="sans-serif" font-size="14" lengthAdjust="spacing" textLength="253.7705" x="16" y="520.4517">Master Catalog + Source Publications</text></g><!--entity icloud--><g class="entity" data-qualified-name="icloud" data-source-line="12" id="ent0005"><path d="M376.7464,336.6193 C381.1391,328.389 386.1302,328.7479 391.5755,335.5831 C395.7899,328.9874 403.1123,328.4356 407.4762,335.408 C413.7893,326.1531 420.3075,325.6342 426.0768,335.9253 C430.2947,329.28 437.7641,327.4257 442.0816,335.8192 C445.2943,329.2587 452.3035,328.5054 456.8634,334.1935 C461.3423,326.497 468.1219,324.8871 473.3243,333.4615 C479.186,327.1112 484.9503,326.054 489.5585,334.8087 C492.7111,327.1388 498.1052,327.4524 502.9894,333.0566 C508.7112,325.5003 515.5537,327.2134 519.1795,335.235 C524.0266,327.3606 530.9415,325.1927 537.2427,333.6242 C541.2736,326.7491 547.6664,328.0215 551.2475,334.1102 C557.8498,326.8397 564.2011,326.6758 568.2492,336.6311 C572.2447,329.0908 578.3351,329.3848 582.7771,336.1786 C588.3343,328.3724 593.8683,326.7772 599.634,335.9719 C610.3075,342.5182 611.5627,351.1981 602.1856,359.884 C611.0831,366.3372 611.0029,377.2142 600.3233,382.0203 C596.5015,390.6741 589.797,391.508 582.9622,385.6166 C578.1622,392.0023 573.1715,392.8463 568.2851,385.7104 C563.6926,392.8227 557.3649,393.3365 551.964,386.668 C549.0766,395.8707 542.2422,396.1662 535.6279,390.8658 C532.4368,398.9762 525.3586,399.028 520.761,392.2724 C516.2691,401.004 510.6883,402.751 504.054,394.3632 C500.1676,403.0773 493.1484,402.8332 488.2175,395.3868 C481.1412,402.926 474.7945,401.8134 471.2247,391.9608 C466.7627,398.6663 460.7027,397.9885 457.6673,390.5895 C452.7458,398.0089 445.2533,398.055 440.863,390.0121 C436.3855,396.1301 429.8583,397.0175 426.1035,389.2442 C419.9853,396.9262 413.6338,395.6182 410.0886,386.7538 C403.5078,393.8427 397.5027,394.8372 391.6775,385.8864 C385.3941,391.5218 380.9391,390.0719 377.6623,382.6575 C362.5675,378.5316 360.9242,369.0223 371.2509,358.2255 C364.2607,349.2043 365.1677,340.9173 376.7464,336.6193" fill="#F1F1F1" style="stroke:#181818;stroke-width:0.5;"/><text fill="#000000" font-family="sans-serif" font-size="14" lengthAdjust="spacing" textLength="118.3369" x="427.715" y="354.9934">iCloud / CloudKit</text><text fill="#000000" font-family="sans-serif" font-size="14" lengthAdjust="spacing" textLength="208.667" x="382.55" y="371.4817">Personal State Synchronization</text></g><!--entity external--><g class="entity" data-qualified-name="external" data-source-line="13" id="ent0006"><path d="M744.0216,335.6855 C747.7141,330.2061 751.5698,330.4946 755.1458,335.8056 C759.4111,329.5442 766.402,329.6411 770.0617,336.4944 C772.8427,330.1397 779.3105,328.4169 783.3666,335.2034 C788.1429,328.4581 792.1006,329.2092 796.2891,335.7739 C800.7416,329.4059 805.9725,328.9508 811.1933,334.8396 C814.3681,328.9635 819.1947,327.3295 824.092,332.8984 C829.3703,327.1222 834.166,327.8721 837.1517,335.1856 C840.5694,327.2858 845.3072,327.8729 850.6569,333.2152 C855.462,325.6232 861.1091,326.9694 865.5149,333.6313 C870.3377,326.7017 876.6812,328.0932 879.6015,335.5005 C883.0108,327.5862 889.9885,329.1073 893.8987,334.981 C897.207,328.1387 903.9548,329.3558 907.388,334.8443 C911.3548,329.9782 916.4851,330.2179 919.9591,335.4572 C924.2779,329.6762 930.9272,328.3112 934.446,336.2989 C946.0855,342.9109 947.116,350.2231 935.6928,358.151 C945.9982,365.4558 944.9029,376.729 933.7097,382.2658 C929.0393,388.3522 924.1902,387.6071 919.9717,381.7461 C916.0008,388.0968 910.6992,389.2606 905.4454,383.2543 C901.7231,389.5674 896.1965,388.1928 893.285,382.4374 C890.6034,389.9985 884.6028,389.7685 879.9524,384.4805 C874.1697,390.3798 868.7747,391.5779 864.3222,383.0404 C860.5783,388.891 855.8288,389.2834 852.3168,382.8144 C849.2442,388.9162 842.6523,390.7243 838.533,383.9333 C835.0524,391.9835 827.9696,391.5388 824.071,384.3294 C820.0275,390.0043 813.9093,391.6577 809.9995,384.1863 C806.4015,389.4646 801.4992,389.4414 798.3881,383.6744 C794.2652,391.7384 788.8868,391.357 784.0234,384.3817 C779.0918,390.4036 774.6683,389.8358 770.401,383.6409 C765.4598,389.64 760.7746,389.683 756.1425,383.2852 C752.2618,390.6129 745.6066,389.6563 741.8358,383.1714 C729.2511,377.9594 727.9562,368.0798 737.5137,358.9215 C728.7066,348.0515 731.5173,340.5867 744.0216,335.6855" fill="#F1F1F1" style="stroke:#181818;stroke-width:0.5;"/><text fill="#000000" font-family="sans-serif" font-size="14" lengthAdjust="spacing" textLength="176.7705" x="748.5" y="354.9934">Optional External Services</text><text fill="#000000" font-family="sans-serif" font-size="14" lengthAdjust="spacing" textLength="120.0596" x="776.8555" y="371.4817">AI / OCR / Export</text></g><g class="entity" data-qualified-name="GMN12" data-source-line="22" id="ent0013"><path d="M314.7,469.4583 L314.7,493.4183 L280.02,497.4183 L314.7,501.4183 L314.7,525.3899 A0,0 0 0 0 314.7,525.3899 L543.0716,525.3899 A0,0 0 0 0 543.0716,525.3899 L543.0716,479.4583 L533.0716,469.4583 L314.7,469.4583 A0,0 0 0 0 314.7,469.4583" fill="#FEFFDD" style="stroke:#181818;stroke-width:0.5;"/><path d="M533.0716,469.4583 L533.0716,479.4583 L543.0716,479.4583 L533.0716,469.4583" fill="#FEFFDD" style="stroke:#181818;stroke-width:0.5;"/><text fill="#000000" font-family="sans-serif" font-size="13" lengthAdjust="spacing" textLength="158.9326" x="344.9195" y="487.0266">No personal annotations,</text><text fill="#000000" font-family="sans-serif" font-size="13" lengthAdjust="spacing" textLength="183.2695" x="332.751" y="502.3372">reading progress or personal</text><text fill="#000000" font-family="sans-serif" font-size="13" lengthAdjust="spacing" textLength="207.3716" x="320.7" y="517.6477">knowledge state are stored here.</text></g><g class="entity" data-qualified-name="GMN15" data-source-line="28" id="ent0016"><path d="M975.02,337.6283 L975.02,378.2494 L1270.7593,378.2494 L1270.7593,347.6283 L1260.7593,337.6283 L975.02,337.6283" fill="#FEFFDD" style="stroke:#181818;stroke-width:0.5;"/><path d="M1260.7593,337.6283 L1260.7593,347.6283 L1270.7593,347.6283 L1260.7593,337.6283" fill="#FEFFDD" style="stroke:#181818;stroke-width:1;"/><text fill="#000000" font-family="sans-serif" font-size="13" lengthAdjust="spacing" textLength="253.5508" x="991.6142" y="355.1966">Each device has a selective local Library.</text><text fill="#000000" font-family="sans-serif" font-size="13" lengthAdjust="spacing" textLength="274.7393" x="981.02" y="370.5072">It is not a replica of the NAS Master Library.</text></g><!--link user to clients--><g class="link" data-entity-1="ent0001" data-entity-2="ent0002" data-link-type="dependency" data-source-line="15" id="lnk7"><path d="M661.89,119.6783 C661.89,143.9283 661.89,169.8783 661.89,191.3483" fill="none" id="user-to-clients" style="stroke:#181818;stroke-width:1;"/><polygon fill="#181818" points="661.89,196.3483,665.89,187.3483,661.89,191.3483,657.89,187.3483,661.89,196.3483" style="stroke:#181818;stroke-width:1;stroke-linejoin:miter;stroke-miterlimit:10;"/><text fill="#000000" font-family="sans-serif" font-size="13" lengthAdjust="spacing" textLength="301.7104" x="662.89" y="163.0466">Reads, annotates and manages local knowledge</text></g><!--link clients to server--><g class="link" data-entity-1="ent0002" data-entity-2="ent0003" data-link-type="dependency" data-source-line="16" id="lnk8"><path d="M575.2,228.4283 C441.1,236.1083 195.51,253.5183 164.89,279.4583 C151.44,290.8383 146.5564,304.8316 144.3964,321.1416" fill="none" id="clients-to-server" style="stroke:#181818;stroke-width:1;"/><polygon fill="#181818" points="143.74,326.0983,148.887,317.7013,144.3964,321.1416,140.9562,316.651,143.74,326.0983" style="stroke:#181818;stroke-width:1;stroke-linejoin:miter;stroke-miterlimit:10;"/><text fill="#000000" font-family="sans-serif" font-size="13" lengthAdjust="spacing" textLength="302.6499" x="165.89" y="293.0266">Browse Master Catalog and acquire publications</text></g><!--link server to master--><g class="link" data-entity-1="ent0003" data-entity-2="ent0004" data-link-type="dependency" data-source-line="17" id="lnk9"><path d="M142.89,394.7983 C142.89,417.5983 142.89,438.4783 142.89,461.1483" fill="none" id="server-master" style="stroke:#181818;stroke-width:1;"/><polygon fill="#181818" points="142.89,389.7983,138.89,398.7983,142.89,394.7983,146.89,398.7983,142.89,389.7983" style="stroke:#181818;stroke-width:1;stroke-linejoin:miter;stroke-miterlimit:10;"/><polygon fill="#181818" points="142.89,466.1483,146.89,457.1483,142.89,461.1483,138.89,457.1483,142.89,466.1483" style="stroke:#181818;stroke-width:1;stroke-linejoin:miter;stroke-miterlimit:10;"/><text fill="#000000" font-family="sans-serif" font-size="13" lengthAdjust="spacing" textLength="307.6772" x="143.89" y="432.9966">Manages master catalog and source publications</text></g><!--link clients to icloud--><g class="link" data-entity-1="ent0002" data-entity-2="ent0005" data-link-type="dependency" data-source-line="18" id="lnk10"><path d="M570.3896,230.4413 C536.2396,237.3613 505.08,250.6483 483.89,279.4583 C474.23,292.5783 473.4609,305.6916 476.3009,321.0516" fill="none" id="clients-icloud" style="stroke:#181818;stroke-width:1;"/><polygon fill="#181818" points="575.29,229.4483,565.6749,227.3153,570.3896,230.4413,567.2637,235.156,575.29,229.4483" style="stroke:#181818;stroke-width:1;stroke-linejoin:miter;stroke-miterlimit:10;"/><polygon fill="#181818" points="477.21,325.9683,479.507,316.391,476.3009,321.0516,471.6403,317.8455,477.21,325.9683" style="stroke:#181818;stroke-width:1;stroke-linejoin:miter;stroke-miterlimit:10;"/><text fill="#000000" font-family="sans-serif" font-size="13" lengthAdjust="spacing" textLength="308.3628" x="484.89" y="293.0266">Synchronize personal state among Apple devices</text></g><!--link clients to external--><g class="link" data-entity-1="ent0002" data-entity-2="ent0006" data-link-type="dependency" data-source-line="19" id="lnk11"><path d="M748.64,248.4883 C766.35,256.3383 783.84,266.4783 797.89,279.4583 C811.49,292.0283 819.1858,305.7608 825.4158,321.4608" fill="none" id="clients-to-external" style="stroke:#181818;stroke-width:1;"/><polygon fill="#181818" points="827.26,326.1083,827.6584,316.2675,825.4158,321.4608,820.2225,319.2182,827.26,326.1083" style="stroke:#181818;stroke-width:1;stroke-linejoin:miter;stroke-miterlimit:10;"/><text fill="#000000" font-family="sans-serif" font-size="13" lengthAdjust="spacing" textLength="175.1636" x="812.5" y="293.0266">Optional governed requests</text></g><!--link clients to GMN15--><g class="link" data-entity-1="ent0002" data-entity-2="ent0016" data-link-type="association" data-source-line="28" id="lnk17"><path d="M748.57,229.1083 C817.64,235.3683 915.85,249.1583 996.89,279.4583 C1034.65,293.5783 1073.49,319.5183 1097.87,337.4783" fill="none" id="clients-GMN15" style="stroke:#181818;stroke-width:1;stroke-dasharray:7,7;"/></g><g class="caption" data-source-line="2"><text fill="#000000" font-family="sans-serif" font-size="14" lengthAdjust="spacing" textLength="412.7197" x="433.0198" y="561.94">Architecture V3.0 &#8212; Master Library and Personal Sync Profile</text></g><g class="footer" data-source-line="32"><text fill="#888888" font-family="sans-serif" font-size="10" lengthAdjust="spacing" textLength="250.2734" x="514.2429" y="576.5611">KnowledgeOS Architecture | C4 Model | Version 3.0</text></g><?plantuml-src PPJBRjim44Nt_8g1jysZHRigYWAkuKMGbn6tMNb3KsE92CLHI2gFeej-HB-mNz9BMh8TToDHufqxmyCXaqsEwTBBi-Egvjib_VtzXsQVw8gVsD67yhbyZObRcebF_9AKqLsoucaQJ6CJczG7flkFP--B-5f37EZAheCEhwHzHGiEKRnsCFA65a4srh5IyS7wJWVTaf6s4yy-BTChoWdmrBw6PY-9ZQxasVgQDjh5mvcADxftwJjAcpfR-nO-PF3We9GsIG9DVaGE4zAHUWpKpfycXokVEOkekFAjDlWy9xjeK5KPwAg4cwr4UQcEWfSSdZYiFBZSJ9T57CilLUcarpf2ZuaZF2i_VCyWSbBJErfA7mpJebyxQtG67OjRMuJAEEahcjXPUPzJUL_QjF9xoaadBgoR8Dx-B2R5mvReqUEsR2C2vYzmBf6es1e6Wka5l6zdTtZENpe9gSJp85GgSwJJqwyZ4VfCTwohU88Dzv8BY6NhM-rrZR4J0_-74PWQmxB5bXCSlWLv1gSZ9Db6cyVUeikw0ofgYFkIFRPqu74z91n-c0EJk2NxncEievXiyS1apmxo4MiiM7KhwC5frw5xAYwqtYncH0IN7TzQKAVd2etzs7D4_w21u1LitIIIpRYtH3UoppU0p6MUO2e0Rsx_BaWTE4P2NuzQJE_GZdM6F9A0h0q7FbCC0Zdha7ijAKcRauyzJJJNfXaMHGssMsDh7CwAVU9X0uUsFOFu8f6DsH6om5r6cjrIm_H_dn-ctuZacSF3y-Oc-PMldsiSC8VXFLQOxnhSBly0?></g></svg>