<svg xmlns="http://www.w3.org/2000/svg" xmlns:xlink="http://www.w3.org/1999/xlink" contentStyleType="text/css" data-diagram-type="DESCRIPTION" height="404px" preserveAspectRatio="none" style="width:1935px;height:404px;background:#FFFFFF;" version="1.1" viewBox="0 0 1935 404" width="1935px" zoomAndPan="magnify"><?plantuml 1.2026.6?><defs/><g><g class="title" data-source-line="1"><text fill="#000000" font-family="sans-serif" font-size="14" font-weight="700" lengthAdjust="spacing" textLength="343.7314" x="792.1343" y="23.5352">KnowledgeOS &#8212; C4 Level 3 &#8212; Platform Engines</text></g><!--cluster Platform--><g class="cluster" data-qualified-name="Platform" data-source-line="7" id="ent0001"><path d="M8.5,43.4883 L71.2285,43.4883 A3.75,3.75 0 0 1 73.7285,45.9883 L80.7285,65.9766 L1515.5,65.9766 A2.5,2.5 0 0 1 1518,68.4766 L1518,128.4783 A2.5,2.5 0 0 1 1515.5,130.9783 L8.5,130.9783 A2.5,2.5 0 0 1 6,128.4783 L6,45.9883 A2.5,2.5 0 0 1 8.5,43.4883" fill="none" style="stroke:#000000;stroke-width:1.5;"/><line style="stroke:#000000;stroke-width:1.5;" x1="6" x2="80.7285" y1="65.9766" y2="65.9766"/><text fill="#000000" font-family="sans-serif" font-size="14" font-weight="700" lengthAdjust="spacing" textLength="61.7285" x="10" y="59.0234">Platform</text></g><!--cluster Domain--><g class="cluster" data-qualified-name="Domain" data-source-line="20" id="ent0012"><path d="M146.5,154.9783 L203.0967,154.9783 A3.75,3.75 0 0 1 205.5967,157.4783 L212.5967,177.4666 L662.5,177.4666 A2.5,2.5 0 0 1 665,179.9666 L665,239.9583 A2.5,2.5 0 0 1 662.5,242.4583 L146.5,242.4583 A2.5,2.5 0 0 1 144,239.9583 L144,157.4783 A2.5,2.5 0 0 1 146.5,154.9783" fill="none" style="stroke:#000000;stroke-width:1.5;"/><line style="stroke:#000000;stroke-width:1.5;" x1="144" x2="212.5967" y1="177.4666" y2="177.4666"/><text fill="#000000" font-family="sans-serif" font-size="14" font-weight="700" lengthAdjust="spacing" textLength="55.5967" x="148" y="170.5134">Domain</text></g><!--cluster Kernel--><g class="cluster" data-qualified-name="Kernel" data-source-line="27" id="ent0017"><path d="M590.5,268.8383 L637.957,268.8383 A3.75,3.75 0 0 1 640.457,271.3383 L647.457,291.3266 L1200.5,291.3266 A2.5,2.5 0 0 1 1203,293.8266 L1203,353.8283 A2.5,2.5 0 0 1 1200.5,356.3283 L590.5,356.3283 A2.5,2.5 0 0 1 588,353.8283 L588,271.3383 A2.5,2.5 0 0 1 590.5,268.8383" fill="none" style="stroke:#000000;stroke-width:1.5;"/><line style="stroke:#000000;stroke-width:1.5;" x1="588" x2="647.457" y1="291.3266" y2="291.3266"/><text fill="#000000" font-family="sans-serif" font-size="14" font-weight="700" lengthAdjust="spacing" textLength="46.457" x="592" y="284.3734">Kernel</text></g><!--cluster Integration--><g class="cluster" data-qualified-name="Integration" data-source-line="32" id="ent0020"><path d="M1167.5,154.9783 L1248.4053,154.9783 A3.75,3.75 0 0 1 1250.9053,157.4783 L1257.9053,177.4666 L1917.5,177.4666 A2.5,2.5 0 0 1 1920,179.9666 L1920,239.9583 A2.5,2.5 0 0 1 1917.5,242.4583 L1167.5,242.4583 A2.5,2.5 0 0 1 1165,239.9583 L1165,157.4783 A2.5,2.5 0 0 1 1167.5,154.9783" fill="none" style="stroke:#000000;stroke-width:1.5;"/><line style="stroke:#000000;stroke-width:1.5;" x1="1165" x2="1257.9053" y1="177.4666" y2="177.4666"/><text fill="#000000" font-family="sans-serif" font-size="14" font-weight="700" lengthAdjust="spacing" textLength="79.9053" x="1169" y="170.5134">Integration</text></g><!--entity library--><g class="entity" data-qualified-name="Platform.library" data-source-line="8" id="ent0002"><rect fill="#F1F1F1" height="36.4883" rx="2.5" ry="2.5" style="stroke:#181818;stroke-width:0.5;" width="116.7969" x="834.6" y="78.4883"/><text fill="#000000" font-family="sans-serif" font-size="14" lengthAdjust="spacing" textLength="96.7969" x="844.6" y="102.0234">Library Engine</text></g><!--entity knowledge--><g class="entity" data-qualified-name="Platform.knowledge" data-source-line="9" id="ent0003"><rect fill="#F1F1F1" height="36.4883" rx="2.5" ry="2.5" style="stroke:#181818;stroke-width:0.5;" width="144.373" x="354.81" y="78.4883"/><text fill="#000000" font-family="sans-serif" font-size="14" lengthAdjust="spacing" textLength="124.373" x="364.81" y="102.0234">Knowledge Engine</text></g><!--entity import--><g class="entity" data-qualified-name="Platform.import" data-source-line="10" id="ent0004"><rect fill="#F1F1F1" height="36.4883" rx="2.5" ry="2.5" style="stroke:#181818;stroke-width:0.5;" width="115.4502" x="684.27" y="78.4883"/><text fill="#000000" font-family="sans-serif" font-size="14" lengthAdjust="spacing" textLength="95.4502" x="694.27" y="102.0234">Import Engine</text></g><!--entity export--><g class="entity" data-qualified-name="Platform.export" data-source-line="11" id="ent0005"><rect fill="#F1F1F1" height="36.4883" rx="2.5" ry="2.5" style="stroke:#181818;stroke-width:0.5;" width="114.5205" x="1240.74" y="78.4883"/><text fill="#000000" font-family="sans-serif" font-size="14" lengthAdjust="spacing" textLength="94.5205" x="1250.74" y="102.0234">Export Engine</text></g><!--entity render--><g class="entity" data-qualified-name="Platform.render" data-source-line="12" id="ent0006"><rect fill="#F1F1F1" height="36.4883" rx="2.5" ry="2.5" style="stroke:#181818;stroke-width:0.5;" width="117.6514" x="22.17" y="78.4883"/><text fill="#000000" font-family="sans-serif" font-size="14" lengthAdjust="spacing" textLength="97.6514" x="32.17" y="102.0234">Render Engine</text></g><!--entity search--><g class="entity" data-qualified-name="Platform.search" data-source-line="13" id="ent0007"><rect fill="#F1F1F1" height="36.4883" rx="2.5" ry="2.5" style="stroke:#181818;stroke-width:0.5;" width="114.6299" x="534.69" y="78.4883"/><text fill="#000000" font-family="sans-serif" font-size="14" lengthAdjust="spacing" textLength="94.6299" x="544.69" y="102.0234">Search Engine</text></g><!--entity annotation--><g class="entity" data-qualified-name="Platform.annotation" data-source-line="14" id="ent0008"><rect fill="#F1F1F1" height="36.4883" rx="2.5" ry="2.5" style="stroke:#181818;stroke-width:0.5;" width="145.1455" x="174.43" y="78.4883"/><text fill="#000000" font-family="sans-serif" font-size="14" lengthAdjust="spacing" textLength="125.1455" x="184.43" y="102.0234">Annotation Engine</text></g><!--entity ai--><g class="entity" data-qualified-name="Platform.ai" data-source-line="15" id="ent0009"><rect fill="#F1F1F1" height="36.4883" rx="2.5" ry="2.5" style="stroke:#181818;stroke-width:0.5;" width="83.6631" x="1122.17" y="78.4883"/><text fill="#000000" font-family="sans-serif" font-size="14" lengthAdjust="spacing" textLength="63.6631" x="1132.17" y="102.0234">AI Engine</text></g><!--entity plugin--><g class="entity" data-qualified-name="Platform.plugin" data-source-line="16" id="ent0010"><rect fill="#F1F1F1" height="36.4883" rx="2.5" ry="2.5" style="stroke:#181818;stroke-width:0.5;" width="111.9092" x="1390.05" y="78.4883"/><text fill="#000000" font-family="sans-serif" font-size="14" lengthAdjust="spacing" textLength="91.9092" x="1400.05" y="102.0234">Plugin Engine</text></g><!--entity sync--><g class="entity" data-qualified-name="Platform.sync" data-source-line="17" id="ent0011"><rect fill="#F1F1F1" height="36.4883" rx="2.5" ry="2.5" style="stroke:#181818;stroke-width:0.5;" width="100.6846" x="986.66" y="78.4883"/><text fill="#000000" font-family="sans-serif" font-size="14" lengthAdjust="spacing" textLength="80.6846" x="996.66" y="102.0234">Sync Engine</text></g><!--entity ko--><g class="entity" data-qualified-name="Domain.ko" data-source-line="21" id="ent0013"><rect fill="#F1F1F1" height="36.4883" rx="2.5" ry="2.5" style="stroke:#181818;stroke-width:0.5;" width="142.9854" x="506.51" y="189.9783"/><text fill="#000000" font-family="sans-serif" font-size="14" lengthAdjust="spacing" textLength="122.9854" x="516.51" y="213.5134">Knowledge Object</text></g><!--entity udm--><g class="entity" data-qualified-name="Domain.udm" data-source-line="22" id="ent0014"><rect fill="#F1F1F1" height="36.4883" rx="2.5" ry="2.5" style="stroke:#181818;stroke-width:0.5;" width="52.2451" x="244.88" y="189.9783"/><text fill="#000000" font-family="sans-serif" font-size="14" lengthAdjust="spacing" textLength="32.2451" x="254.88" y="213.5134">UDM</text></g><!--entity dpm--><g class="entity" data-qualified-name="Domain.dpm" data-source-line="23" id="ent0015"><rect fill="#F1F1F1" height="36.4883" rx="2.5" ry="2.5" style="stroke:#181818;stroke-width:0.5;" width="50.2832" x="159.86" y="189.9783"/><text fill="#000000" font-family="sans-serif" font-size="14" lengthAdjust="spacing" textLength="30.2832" x="169.86" y="213.5134">DPM</text></g><!--entity kg--><g class="entity" data-qualified-name="Domain.kg" data-source-line="24" id="ent0016"><rect fill="#F1F1F1" height="36.4883" rx="2.5" ry="2.5" style="stroke:#181818;stroke-width:0.5;" width="139.9092" x="332.05" y="189.9783"/><text fill="#000000" font-family="sans-serif" font-size="14" lengthAdjust="spacing" textLength="119.9092" x="342.05" y="213.5134">Knowledge Graph</text></g><!--entity buses--><g class="entity" data-qualified-name="Kernel.buses" data-source-line="28" id="ent0018"><rect fill="#F1F1F1" height="36.4883" rx="2.5" ry="2.5" style="stroke:#181818;stroke-width:0.5;" width="242.2705" x="603.86" y="303.8383"/><text fill="#000000" font-family="sans-serif" font-size="14" lengthAdjust="spacing" textLength="222.2705" x="613.86" y="327.3734">Command / Query / Event Buses</text></g><!--entity jobs--><g class="entity" data-qualified-name="Kernel.jobs" data-source-line="29" id="ent0019"><rect fill="#F1F1F1" height="36.4883" rx="2.5" ry="2.5" style="stroke:#181818;stroke-width:0.5;" width="306.0088" x="881" y="303.8383"/><text fill="#000000" font-family="sans-serif" font-size="14" lengthAdjust="spacing" textLength="286.0088" x="891" y="327.3734">Job System / Workflow Engine / Scheduler</text></g><!--entity providers--><g class="entity" data-qualified-name="Integration.providers" data-source-line="33" id="ent0021"><rect fill="#F1F1F1" height="36.4883" rx="2.5" ry="2.5" style="stroke:#181818;stroke-width:0.5;" width="82.8359" x="1536.58" y="189.9783"/><text fill="#000000" font-family="sans-serif" font-size="14" lengthAdjust="spacing" textLength="62.8359" x="1546.58" y="213.5134">Providers</text></g><!--entity storage--><g class="entity" data-qualified-name="Integration.storage" data-source-line="34" id="ent0022"><rect fill="#F1F1F1" height="36.4883" rx="2.5" ry="2.5" style="stroke:#181818;stroke-width:0.5;" width="198.7803" x="1180.61" y="189.9783"/><text fill="#000000" font-family="sans-serif" font-size="14" lengthAdjust="spacing" textLength="178.7803" x="1190.61" y="213.5134">Storage &amp; Synchronization</text></g><!--entity api--><g class="entity" data-qualified-name="Integration.api" data-source-line="35" id="ent0023"><rect fill="#F1F1F1" height="36.4883" rx="2.5" ry="2.5" style="stroke:#181818;stroke-width:0.5;" width="86.3633" x="1414.82" y="189.9783"/><text fill="#000000" font-family="sans-serif" font-size="14" lengthAdjust="spacing" textLength="66.3633" x="1424.82" y="213.5134">Public API</text></g><!--entity sdk--><g class="entity" data-qualified-name="Integration.sdk" data-source-line="36" id="ent0024"><rect fill="#F1F1F1" height="36.4883" rx="2.5" ry="2.5" style="stroke:#181818;stroke-width:0.5;" width="93.5342" x="1810.23" y="189.9783"/><text fill="#000000" font-family="sans-serif" font-size="14" lengthAdjust="spacing" textLength="73.5342" x="1820.23" y="213.5134">Plugin SDK</text></g><!--entity exchange--><g class="entity" data-qualified-name="Integration.exchange" data-source-line="37" id="ent0025"><rect fill="#F1F1F1" height="36.4883" rx="2.5" ry="2.5" style="stroke:#181818;stroke-width:0.5;" width="120.5977" x="1654.7" y="189.9783"/><text fill="#000000" font-family="sans-serif" font-size="14" lengthAdjust="spacing" textLength="100.5977" x="1664.7" y="213.5134">Data Exchange</text></g><g class="entity" data-qualified-name="GMN52" data-source-line="70" id="ent0053"><path d="M1558.1,286.4583 L1558.1,357.7005 A0,0 0 0 0 1558.1,357.7005 L1871.8983,357.7005 A0,0 0 0 0 1871.8983,357.7005 L1871.8983,296.4583 L1861.8983,286.4583 L1719,286.4583 L1715,226.6983 L1711,286.4583 L1558.1,286.4583 A0,0 0 0 0 1558.1,286.4583" fill="#FEFFDD" style="stroke:#181818;stroke-width:0.5;"/><path d="M1861.8983,286.4583 L1861.8983,296.4583 L1871.8983,296.4583 L1861.8983,286.4583" fill="#FEFFDD" style="stroke:#181818;stroke-width:0.5;"/><text fill="#000000" font-family="sans-serif" font-size="13" lengthAdjust="spacing" textLength="211.8403" x="1564.1" y="304.0266">Engines own product capabilities.</text><text fill="#000000" font-family="sans-serif" font-size="13" lengthAdjust="spacing" textLength="240.6016" x="1564.1" y="319.3372">Integration owns external boundaries.</text><text fill="#000000" font-family="sans-serif" font-size="13" lengthAdjust="spacing" textLength="255.2075" x="1564.1" y="334.6477">Kernel owns coordination infrastructure.</text><text fill="#000000" font-family="sans-serif" font-size="13" lengthAdjust="spacing" textLength="292.7983" x="1564.1" y="349.9583">Domain owns canonical knowledge semantics.</text></g><!--link library to ko--><g class="link" data-entity-1="ent0002" data-entity-2="ent0013" data-link-type="dependency" data-source-line="40" id="lnk26"><path d="M866.69,115.2783 C852.55,123.8383 834.47,133.4683 817,138.9783 C787.14,148.3883 777.5,139.8983 747,146.9783 C702.25,157.3683 657.5903,173.8913 623.8503,187.6413" fill="none" id="library-to-ko" style="stroke:#181818;stroke-width:1;"/><polygon fill="#181818" points="619.22,189.5283,629.0641,189.836,623.8503,187.6413,626.0449,182.4275,619.22,189.5283" style="stroke:#181818;stroke-width:1;stroke-linejoin:miter;stroke-miterlimit:10;"/></g><!--link knowledge to kg--><g class="link" data-entity-1="ent0003" data-entity-2="ent0016" data-link-type="dependency" data-source-line="41" id="lnk27"><path d="M422.98,115.3183 C418.32,135.7583 411.783,164.3837 407.123,184.7937" fill="none" id="knowledge-to-kg" style="stroke:#181818;stroke-width:1;"/><polygon fill="#181818" points="406.01,189.6683,411.913,181.7844,407.123,184.7937,404.1137,180.0037,406.01,189.6683" style="stroke:#181818;stroke-width:1;stroke-linejoin:miter;stroke-miterlimit:10;"/></g><!--link knowledge to udm--><g class="link" data-entity-1="ent0003" data-entity-2="ent0014" data-link-type="dependency" data-source-line="42" id="lnk28"><path d="M390.08,115.4683 C373.92,123.0183 354.65,131.7383 337,138.9783 C327.37,142.9183 323.32,140.7283 315,146.9783 C299.88,158.3383 290.1905,171.9927 282.5105,185.3627" fill="none" id="knowledge-to-udm" style="stroke:#181818;stroke-width:1;"/><polygon fill="#181818" points="280.02,189.6983,287.9713,183.8865,282.5105,185.3627,281.0343,179.9018,280.02,189.6983" style="stroke:#181818;stroke-width:1;stroke-linejoin:miter;stroke-miterlimit:10;"/></g><!--link import to udm--><g class="link" data-entity-1="ent0004" data-entity-2="ent0014" data-link-type="dependency" data-source-line="43" id="lnk29"><path d="M717.27,115.2883 C703.24,124.2083 684.94,134.1483 667,138.9783 C629.22,149.1383 349.68,128.8583 315,146.9783 C297.67,156.0283 287.6835,170.8749 280.6035,185.2149" fill="none" id="import-to-udm" style="stroke:#181818;stroke-width:1;"/><polygon fill="#181818" points="278.39,189.6983,285.961,183.3991,280.6035,185.2149,278.7877,179.8575,278.39,189.6983" style="stroke:#181818;stroke-width:1;stroke-linejoin:miter;stroke-miterlimit:10;"/></g><!--link import to dpm--><g class="link" data-entity-1="ent0004" data-entity-2="ent0015" data-link-type="dependency" data-source-line="44" id="lnk30"><path d="M717.28,115.3183 C703.25,124.2483 684.95,134.1883 667,138.9783 C643.38,145.2683 248.57,135.4683 227,146.9783 C210.01,156.0383 200.5469,170.8292 193.9269,185.1592" fill="none" id="import-to-dpm" style="stroke:#181818;stroke-width:1;"/><polygon fill="#181818" points="191.83,189.6983,199.2357,183.2055,193.9269,185.1592,191.9732,179.8505,191.83,189.6983" style="stroke:#181818;stroke-width:1;stroke-linejoin:miter;stroke-miterlimit:10;"/></g><!--link export to exchange--><g class="link" data-entity-1="ent0005" data-entity-2="ent0025" data-link-type="dependency" data-source-line="45" id="lnk31"><path d="M1323.08,115.4483 C1337.07,124.2883 1355.22,134.1183 1373,138.9783 C1429.62,154.4383 1581.74,127.1783 1637,146.9783 C1661.32,155.6883 1680.5387,171.5586 1695.1187,186.0086" fill="none" id="export-to-exchange" style="stroke:#181818;stroke-width:1;"/><polygon fill="#181818" points="1698.67,189.5283,1695.0933,180.3518,1695.1187,186.0086,1689.4619,186.0339,1698.67,189.5283" style="stroke:#181818;stroke-width:1;stroke-linejoin:miter;stroke-miterlimit:10;"/></g><!--link render to dpm--><g class="link" data-entity-1="ent0006" data-entity-2="ent0015" data-link-type="dependency" data-source-line="46" id="lnk32"><path d="M97.71,115.3183 C117.12,135.7583 145.4962,165.6333 164.8862,186.0433" fill="none" id="render-to-dpm" style="stroke:#181818;stroke-width:1;"/><polygon fill="#181818" points="168.33,189.6683,165.0311,180.3883,164.8862,186.0433,159.2312,185.8984,168.33,189.6683" style="stroke:#181818;stroke-width:1;stroke-linejoin:miter;stroke-miterlimit:10;"/></g><!--link search to udm--><g class="link" data-entity-1="ent0007" data-entity-2="ent0014" data-link-type="dependency" data-source-line="47" id="lnk33"><path d="M566.9,115.3783 C552.9,124.2083 534.75,134.0383 517,138.9783 C495.36,144.9883 334.82,136.4083 315,146.9783 C297.86,156.1183 287.9361,170.7561 280.8061,185.0161" fill="none" id="search-to-udm" style="stroke:#181818;stroke-width:1;"/><polygon fill="#181818" points="278.57,189.4883,286.1726,183.2273,280.8061,185.0161,279.0172,179.6496,278.57,189.4883" style="stroke:#181818;stroke-width:1;stroke-linejoin:miter;stroke-miterlimit:10;"/></g><!--link search to kg--><g class="link" data-entity-1="ent0007" data-entity-2="ent0016" data-link-type="dependency" data-source-line="48" id="lnk34"><path d="M563.54,115.3583 C549.83,123.3283 532.94,132.4083 517,138.9783 C505.03,143.8983 500.7,141.4383 489,146.9783 C464.92,158.3683 444.1389,173.0858 427.2289,186.3958" fill="none" id="search-to-kg" style="stroke:#181818;stroke-width:1;"/><polygon fill="#181818" points="423.3,189.4883,432.8461,187.0649,427.2289,186.3958,427.8981,180.7787,423.3,189.4883" style="stroke:#181818;stroke-width:1;stroke-linejoin:miter;stroke-miterlimit:10;"/></g><!--link annotation to udm--><g class="link" data-entity-1="ent0008" data-entity-2="ent0014" data-link-type="dependency" data-source-line="49" id="lnk35"><path d="M250.86,115.3183 C255.33,135.7583 261.6103,164.374 266.0803,184.784" fill="none" id="annotation-to-udm" style="stroke:#181818;stroke-width:1;"/><polygon fill="#181818" points="267.15,189.6683,269.1319,180.0209,266.0803,184.784,261.3172,181.7324,267.15,189.6683" style="stroke:#181818;stroke-width:1;stroke-linejoin:miter;stroke-miterlimit:10;"/></g><!--link annotation to dpm--><g class="link" data-entity-1="ent0008" data-entity-2="ent0015" data-link-type="dependency" data-source-line="50" id="lnk36"><path d="M237.04,115.3183 C225.47,135.7583 208.9641,164.9077 197.4041,185.3177" fill="none" id="annotation-to-dpm" style="stroke:#181818;stroke-width:1;"/><polygon fill="#181818" points="194.94,189.6683,202.856,183.8085,197.4041,185.3177,195.895,179.8658,194.94,189.6683" style="stroke:#181818;stroke-width:1;stroke-linejoin:miter;stroke-miterlimit:10;"/></g><!--link ai to providers--><g class="link" data-entity-1="ent0009" data-entity-2="ent0021" data-link-type="dependency" data-source-line="51" id="lnk37"><path d="M1198.65,115.4483 C1211.48,124.2883 1225.78,134.1183 1240.5,138.9783 C1271.75,149.2783 1506.34,133.8183 1536.5,146.9783 C1556.76,155.8183 1571.5022,170.6731 1578.3522,185.0731" fill="none" id="ai-to-providers" style="stroke:#181818;stroke-width:1;"/><polygon fill="#181818" points="1580.5,189.5883,1580.246,179.7427,1578.3522,185.0731,1573.0217,183.1792,1580.5,189.5883" style="stroke:#181818;stroke-width:1;stroke-linejoin:miter;stroke-miterlimit:10;"/></g><!--link providers to ai--><g class="link" data-entity-1="ent0021" data-entity-2="ent0009" data-link-type="dependency" data-source-line="65" id="lnk49"><path d="M1552.68,189.5883 C1538.65,175.1883 1521.76,155.8183 1501.5,146.9783 C1471.34,133.8183 1236.75,149.2783 1205.5,138.9783 C1190.78,134.1183 1180.0175,127.8218 1171.1675,118.9818" fill="none" id="providers-to-ai" style="stroke:#181818;stroke-width:1;stroke-dasharray:7,7;"/><polygon fill="#181818" points="1167.63,115.4483,1171.1707,124.6387,1171.1675,118.9818,1176.8244,118.9786,1167.63,115.4483" style="stroke:#181818;stroke-width:1;stroke-linejoin:miter;stroke-miterlimit:10;"/></g><!--link plugin to sdk--><g class="link" data-entity-1="ent0010" data-entity-2="ent0024" data-link-type="dependency" data-source-line="52" id="lnk38"><path d="M1502.32,101.5783 C1587.06,108.0583 1742.82,122.8583 1793,146.9783 C1813.49,156.8283 1828.5975,171.7868 1840.3275,185.7768" fill="none" id="plugin-to-sdk" style="stroke:#181818;stroke-width:1;"/><polygon fill="#181818" points="1843.54,189.6083,1840.8227,180.1417,1840.3275,185.7768,1834.6924,185.2817,1843.54,189.6083" style="stroke:#181818;stroke-width:1;stroke-linejoin:miter;stroke-miterlimit:10;"/></g><!--link sync to storage--><g class="link" data-entity-1="ent0011" data-entity-2="ent0022" data-link-type="dependency" data-source-line="53" id="lnk39"><path d="M1063.53,115.2883 C1075.86,123.0683 1090.89,132.0083 1105,138.9783 C1145.06,158.7483 1187.6507,175.2283 1222.9707,187.8283" fill="none" id="sync-to-storage" style="stroke:#181818;stroke-width:1;"/><polygon fill="#181818" points="1227.68,189.5083,1220.5472,182.7168,1222.9707,187.8283,1217.8592,190.2517,1227.68,189.5083" style="stroke:#181818;stroke-width:1;stroke-linejoin:miter;stroke-miterlimit:10;"/></g><!--link library to storage--><g class="link" data-entity-1="ent0002" data-entity-2="ent0022" data-link-type="dependency" data-source-line="54" id="lnk40"><path d="M920.97,115.3783 C934.96,123.5483 952.4,132.7883 969,138.9783 C1037.51,164.4983 1113.3045,180.9985 1175.3445,191.8285" fill="none" id="library-to-storage" style="stroke:#181818;stroke-width:1;"/><polygon fill="#181818" points="1180.27,192.6883,1172.0919,187.2002,1175.3445,191.8285,1170.7162,195.081,1180.27,192.6883" style="stroke:#181818;stroke-width:1;stroke-linejoin:miter;stroke-miterlimit:10;"/></g><!--link library to buses--><g class="link" data-entity-1="ent0002" data-entity-2="ent0018" data-link-type="dependency" data-source-line="56" id="lnk41"><path d="M879.82,115.2583 C848.41,157.0083 772.4654,257.9723 741.1254,299.6423" fill="none" id="library-to-buses" style="stroke:#181818;stroke-width:1;"/><polygon fill="#181818" points="738.12,303.6383,746.7264,298.8498,741.1254,299.6423,740.3329,294.0412,738.12,303.6383" style="stroke:#181818;stroke-width:1;stroke-linejoin:miter;stroke-miterlimit:10;"/></g><!--link knowledge to buses--><g class="link" data-entity-1="ent0003" data-entity-2="ent0018" data-link-type="dependency" data-source-line="57" id="lnk42"><path d="M458.02,115.4583 C474.9,124.1883 496.47,133.9083 517,138.9783 C532.99,142.9183 651.85,137.0583 665,146.9783 C715.15,184.8183 723.4875,262.1513 724.7375,298.3713" fill="none" id="knowledge-to-buses" style="stroke:#181818;stroke-width:1;"/><polygon fill="#181818" points="724.91,303.3683,728.5972,294.2357,724.7375,298.3713,720.602,294.5116,724.91,303.3683" style="stroke:#181818;stroke-width:1;stroke-linejoin:miter;stroke-miterlimit:10;"/></g><!--link import to jobs--><g class="link" data-entity-1="ent0004" data-entity-2="ent0019" data-link-type="dependency" data-source-line="58" id="lnk43"><path d="M768.71,115.4483 C782.57,123.8383 800.11,133.2583 817,138.9783 C839.57,146.6083 848.9,135.9183 870,146.9783 C942.28,184.8383 997.5372,262.939 1020.5672,299.159" fill="none" id="import-to-jobs" style="stroke:#181818;stroke-width:1;"/><polygon fill="#181818" points="1023.25,303.3783,1021.7964,293.6373,1020.5672,299.159,1015.0455,297.9298,1023.25,303.3783" style="stroke:#181818;stroke-width:1;stroke-linejoin:miter;stroke-miterlimit:10;"/></g><!--link export to jobs--><g class="link" data-entity-1="ent0005" data-entity-2="ent0019" data-link-type="dependency" data-source-line="59" id="lnk44"><path d="M1271.67,115.3283 C1257.76,123.7983 1240.07,133.3183 1223,138.9783 C1198.3,147.1583 1186.66,132.5483 1165,146.9783 C1120.57,176.5783 1136.6,208.1783 1104,250.4583 C1088.93,270.0083 1072.5269,286.37 1057.7469,299.99" fill="none" id="export-to-jobs" style="stroke:#181818;stroke-width:1;"/><polygon fill="#181818" points="1054.07,303.3783,1063.399,300.2208,1057.7469,299.99,1057.9777,294.3378,1054.07,303.3783" style="stroke:#181818;stroke-width:1;stroke-linejoin:miter;stroke-miterlimit:10;"/></g><!--link search to jobs--><g class="link" data-entity-1="ent0007" data-entity-2="ent0019" data-link-type="dependency" data-source-line="60" id="lnk45"><path d="M618.72,115.3983 C632.59,123.7883 650.13,133.2083 667,138.9783 C688.71,146.3883 696.72,138.3983 718,146.9783 C792.45,176.9583 795.72,211.6983 866,250.4583 C904.23,271.5483 945.3838,288.6581 979.5138,301.5781" fill="none" id="search-to-jobs" style="stroke:#181818;stroke-width:1;"/><polygon fill="#181818" points="984.19,303.3483,977.189,296.421,979.5138,301.5781,974.3568,303.9029,984.19,303.3483" style="stroke:#181818;stroke-width:1;stroke-linejoin:miter;stroke-miterlimit:10;"/></g><!--link ai to jobs--><g class="link" data-entity-1="ent0009" data-entity-2="ent0019" data-link-type="dependency" data-source-line="61" id="lnk46"><path d="M1135.58,115.4183 C1123.92,123.8083 1111.06,134.6983 1102,146.9783 C1064.9,197.2283 1046.2438,265.4816 1038.7338,298.6616" fill="none" id="ai-to-jobs" style="stroke:#181818;stroke-width:1;"/><polygon fill="#181818" points="1037.63,303.5383,1043.5181,295.6434,1038.7338,298.6616,1035.7155,293.8773,1037.63,303.5383" style="stroke:#181818;stroke-width:1;stroke-linejoin:miter;stroke-miterlimit:10;"/></g><!--link sync to jobs--><g class="link" data-entity-1="ent0011" data-entity-2="ent0019" data-link-type="dependency" data-source-line="62" id="lnk47"><path d="M1034.31,115.4583 C1033.03,124.8083 1031.64,136.4883 1031,146.9783 C1027.52,204.3083 1030.5493,267.4579 1032.4993,298.7779" fill="none" id="sync-to-jobs" style="stroke:#181818;stroke-width:1;"/><polygon fill="#181818" points="1032.81,303.7683,1036.243,294.5371,1032.4993,298.7779,1028.2585,295.0342,1032.81,303.7683" style="stroke:#181818;stroke-width:1;stroke-linejoin:miter;stroke-miterlimit:10;"/></g><!--link api to buses--><g class="link" data-entity-1="ent0023" data-entity-2="ent0018" data-link-type="dependency" data-source-line="64" id="lnk48"><path d="M1438.39,226.7683 C1427.13,235.6883 1412.23,245.6383 1397,250.4583 C1340.43,268.3983 920.97,248.1483 863,260.8383 C824.31,269.3083 787.4899,286.5018 760.2799,301.0418" fill="none" id="api-to-buses" style="stroke:#181818;stroke-width:1;"/><polygon fill="#181818" points="755.87,303.3983,765.693,302.6845,760.2799,301.0418,761.9226,295.6287,755.87,303.3983" style="stroke:#181818;stroke-width:1;stroke-linejoin:miter;stroke-miterlimit:10;"/></g><!--link providers to import--><g class="link" data-entity-1="ent0021" data-entity-2="ent0004" data-link-type="dependency" data-source-line="66" id="lnk50"><path d="M1566.63,189.5083 C1556.2,175.0583 1539.33,155.6583 1519,146.9783 C1483.13,131.6583 854.72,148.8883 817,138.9783 C799.04,134.2483 784.9458,126.9965 770.9258,118.0565" fill="none" id="providers-to-import" style="stroke:#181818;stroke-width:1;stroke-dasharray:7,7;"/><polygon fill="#181818" points="766.71,115.3683,772.1479,123.5798,770.9258,118.0565,776.4491,116.8345,766.71,115.3683" style="stroke:#181818;stroke-width:1;stroke-linejoin:miter;stroke-miterlimit:10;"/></g><!--link providers to export--><g class="link" data-entity-1="ent0021" data-entity-2="ent0005" data-link-type="dependency" data-source-line="67" id="lnk51"><path d="M1566.53,189.7283 C1556.05,175.4183 1539.14,156.0983 1519,146.9783 C1489.4,133.5683 1404.24,147.9183 1373,138.9783 C1355.29,133.9083 1341.3754,126.7256 1327.3654,117.9356" fill="none" id="providers-to-export" style="stroke:#181818;stroke-width:1;stroke-dasharray:7,7;"/><polygon fill="#181818" points="1323.13,115.2783,1328.6279,123.4498,1327.3654,117.9356,1332.8796,116.6732,1323.13,115.2783" style="stroke:#181818;stroke-width:1;stroke-linejoin:miter;stroke-miterlimit:10;"/></g><g class="caption" data-source-line="2"><text fill="#000000" font-family="sans-serif" font-size="14" lengthAdjust="spacing" textLength="118.6719" x="904.6641" y="381.2356">Architecture V3.0</text></g><g class="footer" data-source-line="76"><text fill="#888888" font-family="sans-serif" font-size="10" lengthAdjust="spacing" textLength="250.2734" x="838.8633" y="395.8567">KnowledgeOS Architecture | C4 Model | Version 3.0</text></g><?plantuml-src TLLBRjim4Dth50ClkejJ85q7I6EZS9qWRescQueQoumfKY2fE6vJe8Ve2NkI3abP9kLq9SxZq-DyIIUSH5WglPTOrVYmXh-__y3j1xZ3PvHm5SoLP6wZJGDpLGk5jk2iTK8hk35yAnnornc4nwlf-wAmEw5QPbW3N3UjLgZSsXte34Cqfcg92SLkMQNtGjMmOT9YKRICxrYDC3aUEO6V1PoaO78dIiFCeNTb0io2Z53E6q9AcRiZc7CNj38k9Og0vApvovY5B-UihwWgD2dB12HdhP5HwbAM3KZEkb5AEnOodJ3PW8xOYumbyjsLx6WlPRG16VbrK3ppYkpYLrANcMwOK6TLEMNxeNoYGiTiwvpqRNOVyAvgyetPAcvKRVC_sK-6jTkeMcSEBT4eb6SEtUgcOQg2I_ZI8RNB9SoV_SR7pg8DEgLVvJzzrYMi3zPXG_plskmsKk_xT12ovbkiEeac_F-aIvjvib0EQnCAS-REokXdGLqGZswFrYZvJXklz0vy6RP6A_6Zb_EbYBiZtQwKWiFDQX6BthvTzVLi6JMgtIZpp36Ol_0jJUQnfwFXG-i72oukhdqnX-c9G3q2V5dZtBnb-jh6UGdcS4oSZe4Ins0GI4mwxzJv0s44UGacmlAKvDZe0VG9y3qTZJwZQPX7B0DZg-JHHYm9CFH34c6m4_-3tViMzuv-1AkWsYN2W_SmdLxxOSw1_dxAmVuwAYWZ2ALsJljnwkziq7lbSr9rt07TtwmKKZY1TagSf7KzptU1exbYacGwLJ7Jy-AmHGhNsbH2nP-4sXXcdUd2K-2fyQBegKnHBtEIE-NG8isd4vnqgGF0-rmK6qqVapr7sHFpwb-cUrsH3w_mI77xi-dP-GS0?></g></svg>